<svg xmlns="http://www.w3.org/2000/svg" xmlns:xlink="http://www.w3.org/1999/xlink" width="24" height="24" viewBox="0 0 24 24"><defs><style>.a{fill:#fff;stroke:#707070;}.b{clip-path:url(#a);}</style><clipPath id="a"><rect class="a" width="24" height="24" transform="translate(4459 4609)"/></clipPath></defs><g class="b" transform="translate(-4459 -4609)"><path d="M24,10.363v3.273a1.63,1.63,0,0,1-1.637,1.637h-7.09v7.09A1.63,1.63,0,0,1,13.636,24H10.363a1.63,1.63,0,0,1-1.637-1.637v-7.09H1.637a1.578,1.578,0,0,1-1.159-.477A1.578,1.578,0,0,1,0,13.636V10.363A1.578,1.578,0,0,1,.477,9.2a1.578,1.578,0,0,1,1.159-.477h7.09V1.637A1.578,1.578,0,0,1,9.2.477,1.578,1.578,0,0,1,10.364,0h3.273A1.578,1.578,0,0,1,14.8.477a1.578,1.578,0,0,1,.477,1.159v7.09h7.09A1.63,1.63,0,0,1,24,10.364Z" transform="translate(4459 4609)"/></g></svg>